<?xml version="1.0" encoding="utf-8"?>
<!-- Generator: Adobe Illustrator 26.0.0, SVG Export Plug-In . SVG Version: 6.00 Build 0)  -->
<svg version="1.1" id="Layer_1" xmlns="http://www.w3.org/2000/svg" xmlns:xlink="http://www.w3.org/1999/xlink" x="0px" y="0px"
	 viewBox="0 0 932.2 646.6" style="enable-background:new 0 0 932.2 646.6;" xml:space="preserve">
<style type="text/css">
	.st0{fill:#E6E6E6;}
	.st1{fill:#3F3D56;}
	.st2{fill:#FFB8B8;}
	.st3{fill:#2F2E41;}
	.st4{fill:#F1CC25;}
	.st5{opacity:0.2;enable-background:new    ;}
	.st6{fill:#FEB8B8;}
	.st7{fill:url(#a85aa9a8-70f8-49a0-91e4-e8ca3e9b5e25-200_00000093139671760509230840000016272444434038144938_);}
	.st8{fill:url(#ab32811a-36b8-48f6-a9b0-164845ebe4b4-201_00000127753425369098262510000004683980414233184931_);}
</style>
<path class="st0" d="M27.6,642.5C15.1,639.2,0,625.1,3.2,605.9c1.6-9.6,7.8-15.7,14.2-19.7c8.9-5.5,19-7.6,28.7-8.1
	c11.2-0.6,22.4,0.9,33.6,2.5c11,1.6,22,3,33.1,3.9c43.2,3.4,86.8,0.2,129-9.6c10.4-2.4,20.8-5.2,31.1-8.5
	c9.8-2.9,19.3-6.4,28.6-10.7c12.3-5.9,32.2-17.3,30.6-38.5c-0.9-11.2-7.5-20.2-14.2-26.5c-8.1-7.6-17.4-12.5-26.6-17.4
	c-42.6-22.5-85.2-44.7-127.8-67c-9.9-5.2-20-10.3-29.6-16.4c-9-5.7-18-12.4-25.3-21.6c-6.4-8-12-18.8-11.8-30.8
	c0.2-10,4.7-18.5,10.3-24.8c13.8-15.7,33.3-22,50.9-25.4c21.9-4.1,44.1-4.1,66-8.1c17.7-3.2,36.6-9.5,51-24.1
	c6.1-5.9,10.4-13.5,12.4-21.7c1.8-8.6,0.9-17.7-2.6-25.8c-3.9-9.3-10.1-16.7-16.7-22.8c-7.5-6.9-16-12.6-25.3-16.9
	c-19.4-9.3-39.9-14.1-59.8-21.2c-9.8-3.5-19.6-7.3-28.7-13.3c-7.7-5.1-16-11.9-20.3-22.1c-8.8-21,12.2-33.5,24.1-38.2
	c8.1-3.1,16.4-5.5,24.9-7.1c1.8-0.4,1-4-0.8-3.6c-8.9,1.7-17.7,4.3-26.2,7.6c-7.2,3-14.6,6.9-20.2,13.7c-5.2,6.2-7.5,14.2-6.4,22.2
	c1.5,10.1,8,17.8,14.1,23.4c8.1,7.4,17.3,12.3,26.6,16.2c9.8,4.2,19.9,7.4,29.9,10.6c20,6.4,41,12,59.1,25.6
	c12.7,9.5,29.9,27.2,25.6,49.2c-1.9,9.8-7.5,17.4-13.7,23c-7.2,6.4-15.5,11.4-24.5,14.9c-40.1,16.1-84.2,4.6-123.3,26.5
	c-13.3,7.5-29.4,21-29.5,42.4c-0.1,11.1,4.4,21.3,9.9,29.3c6.6,9.6,15.1,16.8,23.8,22.7c9.1,6,18.6,11.5,28.4,16.4
	c10.7,5.6,21.4,11.2,32.1,16.8l64.9,34l32.2,16.9c9.8,5.2,19.9,10.1,28.9,17.7c7.3,6.2,16,16.4,15.2,29c-0.6,10-7.3,17.3-13.3,22.1
	c-7.9,6.3-16.7,10.3-25.6,13.7c-10.2,3.9-20.5,7.1-30.9,10c-21.2,5.9-42.9,10.2-64.7,12.7c-21.8,2.5-43.8,3.3-65.8,2.5
	c-11.1-0.4-22.2-1.3-33.2-2.7c-11.4-1.4-22.7-3.5-34.2-4.4c-10.3-0.8-20.8-0.7-31,2.1C22.2,579,13.2,583,6.7,591
	C2,597-0.4,604.6,0,612.3c0.4,7.7,3.2,15,7.8,21.1c4.7,6.2,11.4,10.7,19,12.7C28.6,646.6,29.4,643,27.6,642.5L27.6,642.5z"/>
<rect x="24.1" y="644.2" class="st1" width="324" height="2.2"/>
<circle class="st0" cx="323.2" cy="517.5" r="21.2"/>
<circle class="st0" cx="103.6" cy="326.1" r="21.2"/>
<path class="st2" d="M143,560.1c0,0-18.3,24.8-22.4,28.9s-5.3,19.5-5.3,19.5l7.1,16.5l-4.1,8.3l-31.9-31.9l34.2-50.8L143,560.1z"/>
<path class="st3" d="M220.9,408.4c0,0-66.2,201.8-73.3,206.5s-42-24.9-52-32c-10-7.1,75.7-141.8,75.7-141.8
	c-13.6-44.3-7.1-54.5-7.1-54.5L220.9,408.4z"/>
<path class="st3" d="M117,628.6c0,0,0-7.1,2.3-10.6c2.3-3.5,6.6,12.4,6.6,12.4s26,7.1,14.2,14.8c-11.8,7.7-46.6-16.5-56.7-23
	c-10-6.5-6.5-14.2-1.2-19.5l10.3-10.3L117,628.6z"/>
<path class="st2" d="M242.1,573.1c0,0,5.3,15.3,10,30.1c4.7,14.8,27.2,22.4,27.2,22.4l4.1,10.6l-12.4,5.9l-36-8.9
	c0,0,1.2-11.8,1.2-15.9c0-4.1-18.9-39-18.9-39L242.1,573.1z"/>
<circle class="st2" cx="195.5" cy="207.2" r="24.8"/>
<path class="st2" d="M181.9,220.2c0,3.5-17.7,30.7-17.7,30.7l25.9,11.6l11.8-34L181.9,220.2z"/>
<path class="st3" d="M205.5,349.4c10.1-0.1,18.4,8,18.7,18.1l0.8,30.9l4.1,7.1c0,0,25.4,189.6,25.4,195.5s-25.2,22.2-40,21
	c-7.3-0.6-23.7-67.6-30.2-104.4c-4.6-26.1-9.1-54.6-13.7-75.6c-1.5-7.6-3.5-15-5.9-22.4c-13-36,9.4-70.2,9.4-70.2L205.5,349.4
	L205.5,349.4z"/>
<path class="st3" d="M274.3,633.6c0,0,3.2,0.9-0.3-0.3c-3.5-1.2-2.4-7.7-2.2-11c0.1-3.3,34.7,7.4,34.7,15.7c0,8.3-44.3,8.3-57.3,7.1
	s-15.9,0-17.7-8.3c-1.8-8.3,5-19.8,5-19.8L274.3,633.6z"/>
<path class="st4" d="M176.6,365.9c4.6,0,14.5-11.9,19.7-6.7c3.8,3.8,7,7.4,9.8,10.6c8.1,9.2,15.2,17.6,20.2,11.6
	c0.7-0.9-1.8,1.2,0.3-0.2c1.8-1.2,2.6-3.4,2-5.5c-7.2-22.4-11.6-43.9-5.9-61.9c0.4-1.4,0.6-2.9,0.6-4.4c0-0.2,0-0.4,0-0.7
	c0.3-3.3,0.2-15.2-13.4-28.8c-12.4-12.4-14.8-20.1-15.1-23.5c-0.1-0.8-20.1-21.6-20.1-21.6c-2.2-0.9-4.7-0.2-6,1.7l-6.4,8.8
	c-7,13.8-10,29.3-8.8,44.7c1.7,20,4.8,59.6,7.2,73.9c0.2,1.3,0.9,2.5,1.9,3.3c1.5,1.1,3.4,1.4,5.1,0.6
	C170.6,366.6,173.6,365.9,176.6,365.9z"/>
<path class="st3" d="M201.5,208.1l-4.5-4.7c0.4,24.8,23.7,38.6,23.7,38.6l-52.2-5.2l-1.3-6.6l-2.7,5.4l-6.4-1.6l-1.8-4l-3.9,2.1
	l8.1-31.8c8-30.4,32.3-25.9,32.3-25.9c34-10.6,29.8,21.8,29.8,21.8L201.5,208.1z"/>
<polygon class="st5" points="181.6,525.6 172.1,442 183.8,519.5 "/>
<circle class="st3" cx="164.8" cy="174.7" r="13.1"/>
<path class="st3" d="M166.8,185.3c0.3,0,0.5,0,0.8,0l0,0c7.2-0.5,12.7-6.7,12.2-13.9s-6.7-12.7-13.9-12.2c-0.3,0-0.5,0.1-0.8,0.1
	c7.2,0,13.1,5.8,13.1,13.1C178.3,178.9,173.4,184.5,166.8,185.3L166.8,185.3z"/>
<ellipse class="st2" cx="197.5" cy="209.1" rx="4.1" ry="5.7"/>
<path class="st6" d="M246.6,399.5l16.9,11.9c5.4,3.8,6.6,11.2,2.8,16.6c-0.5,0.8-1.2,1.4-1.9,2.1l0,0c-4.9,4.3-12.5,3.9-16.8-1.1
	c-0.4-0.5-0.8-1-1.2-1.6l-9.8-15.8l-34.3-51.9l14.2-10.5L246.6,399.5z"/>
<path class="st5" d="M219.6,353c0.1,9.2-9,17.2-21.8,18.3l-29.4-62.5c-6.3-13.4-4.3-29.2,5.1-40.6l0,0l29.7,36.1
	C204.1,319.9,210.8,336.2,219.6,353z"/>
<path class="st4" d="M219.6,349c0.1,9.2-5,15.2-17.8,16.3l-29.4-62.5c-6.3-13.4-4.3-29.2,5.1-40.6l0,0l29.7,36.1
	C208.1,313.9,210.8,332.2,219.6,349z"/>
<linearGradient id="a85aa9a8-70f8-49a0-91e4-e8ca3e9b5e25-200_00000181765571037385941470000010048211556625846972_" gradientUnits="userSpaceOnUse" x1="-120.0965" y1="52.1914" x2="-107.1364" y2="52.1914" gradientTransform="matrix(46.9404 0 0 24.4473 5964.9268 -957.7039)">
	<stop  offset="0" style="stop-color:#F1CC25"/>
	<stop  offset="0.2939" style="stop-color:#F2C926"/>
	<stop  offset="0.5075" style="stop-color:#F3C02B"/>
	<stop  offset="0.6956" style="stop-color:#F6B032"/>
	<stop  offset="0.868" style="stop-color:#FB9A3C"/>
	<stop  offset="1" style="stop-color:#FF8346"/>
</linearGradient>
<path id="a85aa9a8-70f8-49a0-91e4-e8ca3e9b5e25-200" style="fill:url(#a85aa9a8-70f8-49a0-91e4-e8ca3e9b5e25-200_00000181765571037385941470000010048211556625846972_);" d="
	M926.4,229.8h-31.9c-5,0.2-9.5,3.4-11.4,8l-7.2,20.8l-5.8,16.1l-8.1,23.4c-0.8,2.8-2,5.5-3.4,8c-1.5-2.6-2.6-5.3-3.5-8.1l-7.7-23.2
	c-1.5-4.5-4.1-11.7-5.6-16.2l-7.2-20.8c-1.9-4.7-6.4-7.8-11.4-8H700.3c-4.7,0-8.5,3.8-8.5,8.5l0,0l0,0v48.7c0,4.8-3.9,8.6-8.6,8.6
	h-35.6c-4.7,0-8.6-3.9-8.6-8.6v-48.7c0-4.6-3.6-8.3-8.2-8.5h-29.7c-4.7,0-8.6,3.8-8.6,8.5v22.5c15.8,20.1,15.8,56.7,0,111.3v26
	c0,4.7,3.9,8.5,8.6,8.5h29.7c4.7,0,8.5-3.8,8.5-8.5l0,0l0,0V345c0-4.6,3.6-8.4,8.2-8.6h35.6c4.7,0,8.6,3.8,8.6,8.5l0,0.1v53.1
	c0,4.7,3.8,8.5,8.5,8.5h100.1c4.7,0,8.5-3.8,8.5-8.5v-22c0-4.7-3.8-8.5-8.5-8.5h-53.1c-4.7,0-8.5-3.9-8.5-8.6v-14.5
	c0-4.7,3.8-8.6,8.5-8.6h32.1c4.7,0,8.5-3.8,8.5-8.5l0,0l0,0v-22c0-4.7-3.8-8.5-8.5-8.5h-32.1c-4.7,0-8.5-3.9-8.5-8.6v-10.6
	c0-4.7,3.8-8.6,8.5-8.6l0.1,0h43.4c5.1,0.3,9.7,3.2,12.1,7.8l28.1,61.1c2.2,5.2,3.4,10.7,3.6,16.4v43.9c0,4.7,3.8,8.5,8.5,8.5h29.7
	c4.7,0,8.6-3.8,8.6-8.5l0-0.1v-43.9c0.2-5.6,1.4-11.2,3.5-16.4l46.5-100.4c1.5-2.4,0.8-5.5-1.5-7
	C928.8,229.9,927.6,229.7,926.4,229.8L926.4,229.8z"/>
<linearGradient id="ab32811a-36b8-48f6-a9b0-164845ebe4b4-201_00000143604954370911501940000005659484917017069727_" gradientUnits="userSpaceOnUse" x1="-114.7516" y1="42.2909" x2="-97.0735" y2="42.2909" gradientTransform="matrix(34.411 0 0 37.3963 4276.3296 -1261.8019)">
	<stop  offset="0" style="stop-color:#F1CC25"/>
	<stop  offset="0.9844" style="stop-color:#F19525"/>
</linearGradient>
<path id="ab32811a-36b8-48f6-a9b0-164845ebe4b4-201" style="fill:url(#ab32811a-36b8-48f6-a9b0-164845ebe4b4-201_00000143604954370911501940000005659484917017069727_);" d="
	M551.2,259.9c-11.4,3.1-21.7,9.2-29.8,17.7c-9.5-33.3-29.9-83.7-49.8-91.9c-4.3-2-9.2-1.8-13.3,0.6c-12.4,7.2-20.6,30.5-13.5,74.7
	c-27.4-50.1-36.9-50-41.3-50.1c-4.3,0.1-8.2,2.7-9.8,6.7c-3,6.6-8.9,27.1,5.6,71.3c-17.4-23.9-22.8-26.9-28.9-26.6
	c-4,0.2-7.6,2.7-9.3,6.3c-5.2,9.8-4.6,34.6,11.6,71.5c-5.6-4.9-12.6-7.8-20-8.2c-4,0.3-7.7,2.6-9.6,6.2c-6.6,12.1,7.2,46,24.3,69
	c13.8,18.9,41.5,47.9,81.8,47.9c5.6,0,11.3-0.5,16.8-1.6c4-0.7,6.7-4.5,6-8.5c-0.7-4-4.5-6.7-8.5-6c-0.1,0-0.2,0-0.3,0.1
	c-33.4,6.5-58.6-11.9-73.9-28.4c-22.8-24.7-32.8-54.3-33.4-63.4c4.8,2,18.5,10.1,45.3,44.4c2.4,3.3,6.9,4.1,10.2,1.7
	c3.3-2.4,4.1-6.9,1.7-10.2c0,0,0,0,0,0l0,0c-37.6-57.1-41.3-91.7-40.1-103.3c11.1,11.3,38.7,52.7,59.6,83.9
	c2.2,3.4,6.8,4.3,10.2,2.1c3.2-2.1,4.2-6.3,2.4-9.7c-43.4-79.6-41.9-115.8-39.4-127.9c6.5,6.6,23.8,29.5,60.2,108.5
	c1.7,3.7,6.1,5.2,9.8,3.5c3.4-1.6,5-5.6,3.8-9.1c-35.3-95.9-20-128.4-14.1-132.1c7.6,0,28.9,36.6,42.3,84.6c0.8,3,1.6,5.9,2.3,8.7
	c-1.9,3.3-3.3,6.8-4.3,10.4c-7.2,26.6-14.5,86.8-0.5,103.4c2.8,3.5,7.2,5.4,11.7,5c5.7-0.6,10.8-3.8,13.9-8.5
	c13-18.9,5.4-66.3-5-107.7c7-10,17.2-17.3,28.9-20.8c5.1-1.6,10.7-0.3,14.5,3.5c5.9,6.7,16.3,31.5-15.1,119.3
	c-1.4,3.8,0.6,8,4.5,9.4s8-0.6,9.4-4.5c25-70,28.9-115.1,12.2-134C572.8,259.8,561.5,256.8,551.2,259.9z M518.6,394.3
	c-0.5,1-1.4,1.7-2.5,2.1c-5.4-6.4-5.4-44.6,0.5-75.8C527.9,374.6,521.4,390.5,518.6,394.3L518.6,394.3z"/>
<path class="st0" d="M236.7,0.9l-58.8,25.6c-5.4,2.4-7.9,8.6-5.5,14.1l18.3,42c2.4,5.4,8.6,7.9,14.1,5.5l58.8-25.6
	c5.4-2.4,7.9-8.6,5.5-14.1l-18.3-42C248.4,1,242.1-1.5,236.7,0.9z M239.2,6.5c0.4-0.2,0.7-0.3,1.1-0.3l-19.9,37.5l-40.8-11.2
	c0.3-0.2,0.5-0.3,0.8-0.5L239.2,6.5z M261.1,56.9l-58.8,25.6c-2.3,1-5-0.1-6-2.4l-18.1-41.6l43,11.8c1.4,0.4,2.8-0.3,3.5-1.5
	l20.8-39.2l18,41.4C264.4,53.2,263.4,55.9,261.1,56.9z"/>
</svg>
